<mxfile host="65bd71144e">
    <diagram id="8f4bl4VKRoembliUP5nm" name="Page-1">
        <mxGraphModel dx="753" dy="1024" grid="0" gridSize="10" guides="1" tooltips="1" connect="1" arrows="1" fold="1" page="1" pageScale="1" pageWidth="827" pageHeight="583" background="#ffffff" math="0" shadow="0">
            <root>
                <mxCell id="0"/>
                <mxCell id="1" parent="0"/>
                <mxCell id="2" value="" style="ellipse;whiteSpace=wrap;html=1;aspect=fixed;" parent="1" vertex="1">
                    <mxGeometry x="86" y="227" width="28" height="28" as="geometry"/>
                </mxCell>
                <mxCell id="3" value="" style="endArrow=classic;html=1;exitX=1;exitY=0.5;exitDx=0;exitDy=0;shadow=0;fontColor=#000000;labelBackgroundColor=#000000;strokeColor=#000000;entryX=0;entryY=0.5;entryDx=0;entryDy=0;" parent="1" source="2" target="4" edge="1">
                    <mxGeometry width="50" height="50" relative="1" as="geometry">
                        <mxPoint x="501" y="350" as="sourcePoint"/>
                        <mxPoint x="177" y="241" as="targetPoint"/>
                    </mxGeometry>
                </mxCell>
                <mxCell id="7" value="" style="edgeStyle=none;html=1;shadow=0;labelBackgroundColor=#000000;fontSize=10;fontColor=#000000;strokeColor=#000000;" parent="1" source="4" target="6" edge="1">
                    <mxGeometry relative="1" as="geometry"/>
                </mxCell>
                <mxCell id="4" value="&lt;font style=&quot;font-size: 10px&quot;&gt;Страница авторизации&lt;/font&gt;" style="rounded=1;whiteSpace=wrap;html=1;fontColor=#000000;fillColor=#FFFFFF;strokeColor=#000000;" parent="1" vertex="1">
                    <mxGeometry x="203" y="220" width="90" height="42" as="geometry"/>
                </mxCell>
                <mxCell id="5" value="&lt;font style=&quot;font-size: 10px&quot;&gt;Запуск веб-приложения&lt;/font&gt;" style="text;html=1;strokeColor=none;fillColor=none;align=center;verticalAlign=middle;whiteSpace=wrap;rounded=0;labelBackgroundColor=none;fontColor=#000000;" parent="1" vertex="1">
                    <mxGeometry x="107" y="207" width="96" height="30" as="geometry"/>
                </mxCell>
                <mxCell id="13" value="" style="edgeStyle=none;html=1;shadow=0;labelBackgroundColor=#000000;fontSize=11;fontColor=#000000;strokeColor=#000000;entryX=0.25;entryY=1;entryDx=0;entryDy=0;" parent="1" target="16" edge="1">
                    <mxGeometry relative="1" as="geometry">
                        <mxPoint x="468" y="149.5" as="targetPoint"/>
                        <mxPoint x="441" y="218" as="sourcePoint"/>
                    </mxGeometry>
                </mxCell>
                <mxCell id="47" style="edgeStyle=none;html=1;shadow=0;labelBackgroundColor=#000000;fontSize=11;fontColor=#000000;strokeColor=#000000;" parent="1" source="6" target="45" edge="1">
                    <mxGeometry relative="1" as="geometry"/>
                </mxCell>
                <mxCell id="6" value="&lt;font size=&quot;1&quot;&gt;Главная страница&lt;/font&gt;" style="whiteSpace=wrap;html=1;fillColor=#FFFFFF;strokeColor=#000000;fontColor=#000000;rounded=1;" parent="1" vertex="1">
                    <mxGeometry x="424.5" y="220" width="92" height="41" as="geometry"/>
                </mxCell>
                <mxCell id="8" value="&lt;font style=&quot;font-size: 10px&quot;&gt;Успешная авторизация&amp;nbsp;&lt;/font&gt;" style="text;html=1;strokeColor=none;fillColor=none;align=center;verticalAlign=middle;whiteSpace=wrap;rounded=0;labelBackgroundColor=none;fontColor=#000000;" parent="1" vertex="1">
                    <mxGeometry x="299.25" y="242" width="116" height="30" as="geometry"/>
                </mxCell>
                <mxCell id="14" value="&lt;font style=&quot;font-size: 10px&quot;&gt;Выбор раздела &quot;Турниры&quot;&lt;/font&gt;" style="text;html=1;strokeColor=none;fillColor=none;align=center;verticalAlign=middle;whiteSpace=wrap;rounded=0;labelBackgroundColor=none;fontColor=#000000;" parent="1" vertex="1">
                    <mxGeometry x="344" y="166" width="91" height="30" as="geometry"/>
                </mxCell>
                <mxCell id="19" style="edgeStyle=none;html=1;exitX=0;exitY=0.5;exitDx=0;exitDy=0;shadow=0;labelBackgroundColor=#000000;fontSize=11;fontColor=#000000;strokeColor=#000000;entryX=0;entryY=0.5;entryDx=0;entryDy=0;" parent="1" source="16" target="20" edge="1">
                    <mxGeometry relative="1" as="geometry">
                        <mxPoint x="347.3377772739956" y="125.28571428571428" as="targetPoint"/>
                    </mxGeometry>
                </mxCell>
                <mxCell id="24" style="edgeStyle=none;html=1;shadow=0;labelBackgroundColor=#000000;fontSize=11;fontColor=#000000;strokeColor=#000000;entryX=0.75;entryY=1;entryDx=0;entryDy=0;exitX=0.75;exitY=0;exitDx=0;exitDy=0;" parent="1" source="16" target="25" edge="1">
                    <mxGeometry relative="1" as="geometry">
                        <mxPoint x="468" y="67.8630807059152" as="targetPoint"/>
                    </mxGeometry>
                </mxCell>
                <mxCell id="33" style="edgeStyle=none;html=1;exitX=0;exitY=0.5;exitDx=0;exitDy=0;entryX=0;entryY=0.5;entryDx=0;entryDy=0;shadow=0;labelBackgroundColor=#000000;fontSize=11;fontColor=#000000;strokeColor=#000000;" parent="1" source="16" target="31" edge="1">
                    <mxGeometry relative="1" as="geometry">
                        <Array as="points">
                            <mxPoint x="340" y="126"/>
                            <mxPoint x="340" y="-56"/>
                        </Array>
                    </mxGeometry>
                </mxCell>
                <mxCell id="91" style="edgeStyle=none;html=1;exitX=0.75;exitY=1;exitDx=0;exitDy=0;entryX=0.75;entryY=0;entryDx=0;entryDy=0;strokeColor=#000000;" edge="1" parent="1" source="16" target="6">
                    <mxGeometry relative="1" as="geometry"/>
                </mxCell>
                <mxCell id="16" value="&lt;font size=&quot;1&quot;&gt;Список пршедших и текущих турниров&lt;/font&gt;" style="whiteSpace=wrap;html=1;fillColor=#FFFFFF;strokeColor=#000000;fontColor=#000000;rounded=1;" parent="1" vertex="1">
                    <mxGeometry x="415.25" y="105" width="103.5" height="41" as="geometry"/>
                </mxCell>
                <mxCell id="51" style="edgeStyle=none;html=1;shadow=0;labelBackgroundColor=#000000;fontSize=11;fontColor=#000000;strokeColor=#000000;" parent="1" source="20" target="49" edge="1">
                    <mxGeometry relative="1" as="geometry"/>
                </mxCell>
                <mxCell id="20" value="&lt;font size=&quot;1&quot;&gt;Страница подробной информации о турнире&lt;/font&gt;" style="whiteSpace=wrap;html=1;fillColor=#FFFFFF;strokeColor=#000000;fontColor=#000000;rounded=1;" parent="1" vertex="1">
                    <mxGeometry x="622" y="105" width="113" height="41" as="geometry"/>
                </mxCell>
                <mxCell id="22" value="&lt;span style=&quot;font-size: 10px&quot;&gt;Выбор прошедшего турнира&lt;/span&gt;" style="text;html=1;strokeColor=none;fillColor=none;align=center;verticalAlign=middle;whiteSpace=wrap;rounded=0;labelBackgroundColor=none;fontColor=#000000;" parent="1" vertex="1">
                    <mxGeometry x="521" y="129" width="101" height="30" as="geometry"/>
                </mxCell>
                <mxCell id="29" style="edgeStyle=none;html=1;exitX=0.5;exitY=0;exitDx=0;exitDy=0;shadow=0;labelBackgroundColor=#000000;fontSize=11;fontColor=#000000;strokeColor=#000000;entryX=0.5;entryY=1;entryDx=0;entryDy=0;" parent="1" source="25" target="31" edge="1">
                    <mxGeometry relative="1" as="geometry">
                        <mxPoint x="468" y="-44" as="targetPoint"/>
                    </mxGeometry>
                </mxCell>
                <mxCell id="94" style="edgeStyle=none;html=1;exitX=0.25;exitY=1;exitDx=0;exitDy=0;entryX=0.25;entryY=0;entryDx=0;entryDy=0;strokeColor=#000000;" edge="1" parent="1" source="25" target="16">
                    <mxGeometry relative="1" as="geometry"/>
                </mxCell>
                <mxCell id="25" value="&lt;font size=&quot;1&quot;&gt;Окно создания турнира&lt;/font&gt;" style="whiteSpace=wrap;html=1;fillColor=#FFFFFF;strokeColor=#000000;fontColor=#000000;rounded=1;" parent="1" vertex="1">
                    <mxGeometry x="419.5" y="21" width="97" height="41" as="geometry"/>
                </mxCell>
                <mxCell id="28" value="&lt;font style=&quot;font-size: 8px&quot;&gt;Нажатие на кнопку &quot;Создать турнир&quot;&lt;/font&gt;" style="text;html=1;strokeColor=none;fillColor=none;align=center;verticalAlign=middle;whiteSpace=wrap;rounded=0;labelBackgroundColor=none;fontColor=#000000;" parent="1" vertex="1">
                    <mxGeometry x="494" y="67" width="79" height="28.5" as="geometry"/>
                </mxCell>
                <mxCell id="30" value="&lt;span style=&quot;font-size: 10px&quot;&gt;Заполнение основной информации о турнире&lt;/span&gt;" style="text;html=1;strokeColor=none;fillColor=none;align=center;verticalAlign=middle;whiteSpace=wrap;rounded=0;labelBackgroundColor=none;fontColor=#000000;" parent="1" vertex="1">
                    <mxGeometry x="473" y="-22" width="124" height="30" as="geometry"/>
                </mxCell>
                <mxCell id="38" style="edgeStyle=none;html=1;exitX=0.5;exitY=0;exitDx=0;exitDy=0;shadow=0;labelBackgroundColor=#000000;fontSize=11;fontColor=#000000;strokeColor=#000000;entryX=0.5;entryY=1;entryDx=0;entryDy=0;" parent="1" source="31" target="39" edge="1">
                    <mxGeometry relative="1" as="geometry">
                        <mxPoint x="468.1724137931035" y="-152.7859476023707" as="targetPoint"/>
                    </mxGeometry>
                </mxCell>
                <mxCell id="99" style="edgeStyle=none;html=1;entryX=1;entryY=0.25;entryDx=0;entryDy=0;strokeColor=#000000;exitX=1;exitY=0.5;exitDx=0;exitDy=0;" edge="1" parent="1" source="31" target="16">
                    <mxGeometry relative="1" as="geometry">
                        <mxPoint x="544" y="-34" as="sourcePoint"/>
                        <Array as="points">
                            <mxPoint x="642" y="-56"/>
                            <mxPoint x="642" y="85"/>
                            <mxPoint x="571" y="115"/>
                        </Array>
                    </mxGeometry>
                </mxCell>
                <mxCell id="31" value="&lt;font size=&quot;1&quot;&gt;Окно турнирной сетки&lt;/font&gt;" style="whiteSpace=wrap;html=1;fillColor=#FFFFFF;strokeColor=#000000;fontColor=#000000;rounded=1;" parent="1" vertex="1">
                    <mxGeometry x="419.5" y="-77" width="97" height="41" as="geometry"/>
                </mxCell>
                <mxCell id="35" value="&lt;span style=&quot;font-size: 10px&quot;&gt;Выбор текущего турнира&lt;/span&gt;" style="text;html=1;strokeColor=none;fillColor=none;align=center;verticalAlign=middle;whiteSpace=wrap;rounded=0;labelBackgroundColor=none;fontColor=#000000;" parent="1" vertex="1">
                    <mxGeometry x="232" y="26.5" width="101" height="30" as="geometry"/>
                </mxCell>
                <mxCell id="42" style="edgeStyle=none;html=1;entryX=0.5;entryY=0;entryDx=0;entryDy=0;shadow=0;labelBackgroundColor=#000000;fontSize=11;fontColor=#000000;strokeColor=#000000;" parent="1" source="39" target="20" edge="1">
                    <mxGeometry relative="1" as="geometry">
                        <Array as="points">
                            <mxPoint x="677" y="-177"/>
                        </Array>
                    </mxGeometry>
                </mxCell>
                <mxCell id="39" value="&lt;font size=&quot;1&quot;&gt;Подсчет конечных результатов и рейтинга игроков&lt;/font&gt;" style="whiteSpace=wrap;html=1;fillColor=#FFFFFF;strokeColor=#000000;fontColor=#000000;rounded=1;" parent="1" vertex="1">
                    <mxGeometry x="415.25" y="-200" width="105.5" height="45" as="geometry"/>
                </mxCell>
                <mxCell id="41" value="&lt;span style=&quot;font-size: 10px&quot;&gt;Завершение турнира&lt;/span&gt;" style="text;html=1;strokeColor=none;fillColor=none;align=center;verticalAlign=middle;whiteSpace=wrap;rounded=0;labelBackgroundColor=none;fontColor=#000000;" parent="1" vertex="1">
                    <mxGeometry x="476" y="-131" width="101" height="30" as="geometry"/>
                </mxCell>
                <mxCell id="43" value="&lt;span style=&quot;font-size: 10px&quot;&gt;Завершение всех подсчетов&lt;/span&gt;" style="text;html=1;strokeColor=none;fillColor=none;align=center;verticalAlign=middle;whiteSpace=wrap;rounded=0;labelBackgroundColor=none;fontColor=#000000;" parent="1" vertex="1">
                    <mxGeometry x="544" y="-211" width="101" height="30" as="geometry"/>
                </mxCell>
                <mxCell id="54" style="edgeStyle=none;html=1;strokeColor=#000000;startArrow=none;entryX=0;entryY=0.5;entryDx=0;entryDy=0;exitX=1;exitY=0.5;exitDx=0;exitDy=0;" edge="1" parent="1" source="45" target="53">
                    <mxGeometry relative="1" as="geometry">
                        <mxPoint x="808" y="242" as="sourcePoint"/>
                    </mxGeometry>
                </mxCell>
                <mxCell id="45" value="&lt;font size=&quot;1&quot;&gt;Список всех игроков&lt;/font&gt;" style="whiteSpace=wrap;html=1;fillColor=#FFFFFF;strokeColor=#000000;fontColor=#000000;rounded=1;" parent="1" vertex="1">
                    <mxGeometry x="637" y="219" width="92" height="45" as="geometry"/>
                </mxCell>
                <mxCell id="48" value="&lt;font style=&quot;font-size: 10px&quot;&gt;Выбор раздела &quot;Игроки&quot;&lt;/font&gt;" style="text;html=1;strokeColor=none;fillColor=none;align=center;verticalAlign=middle;whiteSpace=wrap;rounded=0;labelBackgroundColor=none;fontColor=#000000;" parent="1" vertex="1">
                    <mxGeometry x="531" y="247" width="91" height="30" as="geometry"/>
                </mxCell>
                <mxCell id="77" style="edgeStyle=none;html=1;strokeColor=#000000;" edge="1" parent="1" source="49" target="53">
                    <mxGeometry relative="1" as="geometry"/>
                </mxCell>
                <mxCell id="49" value="&lt;font size=&quot;1&quot;&gt;Список игроков выбранного турнира&lt;/font&gt;" style="whiteSpace=wrap;html=1;fillColor=#FFFFFF;strokeColor=#000000;fontColor=#000000;rounded=1;" parent="1" vertex="1">
                    <mxGeometry x="856" y="105" width="113" height="41" as="geometry"/>
                </mxCell>
                <mxCell id="52" value="&lt;span style=&quot;font-size: 10px&quot;&gt;Нажатие на кнопку &quot;Список участников&quot;&lt;/span&gt;" style="text;html=1;strokeColor=none;fillColor=none;align=center;verticalAlign=middle;whiteSpace=wrap;rounded=0;labelBackgroundColor=none;fontColor=#000000;" parent="1" vertex="1">
                    <mxGeometry x="745" y="129" width="101" height="30" as="geometry"/>
                </mxCell>
                <mxCell id="58" style="edgeStyle=none;html=1;strokeColor=#000000;exitX=1;exitY=0.25;exitDx=0;exitDy=0;entryX=0;entryY=0.25;entryDx=0;entryDy=0;" edge="1" parent="1" source="53" target="57">
                    <mxGeometry relative="1" as="geometry"/>
                </mxCell>
                <mxCell id="53" value="&lt;font size=&quot;1&quot;&gt;Подробная информация об игроке&lt;/font&gt;" style="whiteSpace=wrap;html=1;fillColor=#FFFFFF;strokeColor=#000000;fontColor=#000000;rounded=1;" vertex="1" parent="1">
                    <mxGeometry x="853" y="215.25" width="119" height="51.5" as="geometry"/>
                </mxCell>
                <mxCell id="55" value="&lt;span style=&quot;font-size: 10px&quot;&gt;Выбор определенного игрока&lt;/span&gt;" style="text;html=1;strokeColor=none;fillColor=none;align=center;verticalAlign=middle;whiteSpace=wrap;rounded=0;labelBackgroundColor=none;fontColor=#000000;" vertex="1" parent="1">
                    <mxGeometry x="735" y="212" width="106" height="30" as="geometry"/>
                </mxCell>
                <mxCell id="68" style="edgeStyle=none;html=1;exitX=1;exitY=0.5;exitDx=0;exitDy=0;entryX=0;entryY=0.5;entryDx=0;entryDy=0;strokeColor=#000000;" edge="1" parent="1" source="57" target="61">
                    <mxGeometry relative="1" as="geometry"/>
                </mxCell>
                <mxCell id="57" value="&lt;font size=&quot;1&quot;&gt;Окно редактирования личных данных&lt;/font&gt;" style="whiteSpace=wrap;html=1;fillColor=#FFFFFF;strokeColor=#000000;fontColor=#000000;rounded=1;" vertex="1" parent="1">
                    <mxGeometry x="1092" y="215.25" width="119" height="51.5" as="geometry"/>
                </mxCell>
                <mxCell id="59" value="&lt;font style=&quot;font-size: 8px&quot;&gt;Нажатие на кнопку &quot;Редактировать личные данные&quot;&lt;/font&gt;" style="text;html=1;strokeColor=none;fillColor=none;align=center;verticalAlign=middle;whiteSpace=wrap;rounded=0;labelBackgroundColor=none;fontColor=#000000;" vertex="1" parent="1">
                    <mxGeometry x="987" y="188" width="95" height="39" as="geometry"/>
                </mxCell>
                <mxCell id="71" style="edgeStyle=none;html=1;exitX=0.5;exitY=1;exitDx=0;exitDy=0;entryX=0.5;entryY=0;entryDx=0;entryDy=0;strokeColor=#000000;" edge="1" parent="1" source="61" target="70">
                    <mxGeometry relative="1" as="geometry"/>
                </mxCell>
                <mxCell id="72" style="edgeStyle=none;html=1;entryX=0.5;entryY=1;entryDx=0;entryDy=0;strokeColor=#000000;exitX=0.5;exitY=1;exitDx=0;exitDy=0;" edge="1" parent="1" source="61" target="53">
                    <mxGeometry relative="1" as="geometry">
                        <mxPoint x="1329" y="267" as="sourcePoint"/>
                        <Array as="points">
                            <mxPoint x="1384" y="291"/>
                            <mxPoint x="913" y="291"/>
                        </Array>
                    </mxGeometry>
                </mxCell>
                <mxCell id="61" value="&lt;font size=&quot;1&quot;&gt;Ожидание подтверждения внесенных изменений&lt;/font&gt;" style="whiteSpace=wrap;html=1;fillColor=#FFFFFF;strokeColor=#000000;fontColor=#000000;rounded=1;" vertex="1" parent="1">
                    <mxGeometry x="1324" y="215.25" width="119" height="51.5" as="geometry"/>
                </mxCell>
                <mxCell id="64" value="&lt;span style=&quot;font-size: 10px&quot;&gt;Изменение личных данных&lt;/span&gt;" style="text;html=1;strokeColor=none;fillColor=none;align=center;verticalAlign=middle;whiteSpace=wrap;rounded=0;labelBackgroundColor=none;fontColor=#000000;" vertex="1" parent="1">
                    <mxGeometry x="1215" y="215.25" width="92" height="17" as="geometry"/>
                </mxCell>
                <mxCell id="83" style="edgeStyle=none;html=1;entryX=0.5;entryY=1;entryDx=0;entryDy=0;strokeColor=#000000;" edge="1" parent="1" source="70" target="53">
                    <mxGeometry relative="1" as="geometry">
                        <Array as="points">
                            <mxPoint x="913" y="338"/>
                        </Array>
                    </mxGeometry>
                </mxCell>
                <mxCell id="70" value="&lt;font size=&quot;1&quot;&gt;Внесение новых данных в личную информацию игрока&lt;/font&gt;" style="whiteSpace=wrap;html=1;fillColor=#FFFFFF;strokeColor=#000000;fontColor=#000000;rounded=1;" vertex="1" parent="1">
                    <mxGeometry x="1324" y="312" width="119" height="51.5" as="geometry"/>
                </mxCell>
                <mxCell id="73" value="&lt;span style=&quot;font-size: 10px&quot;&gt;Подтверждение внесенных изменений&lt;/span&gt;" style="text;html=1;strokeColor=none;fillColor=none;align=center;verticalAlign=middle;whiteSpace=wrap;rounded=0;labelBackgroundColor=none;fontColor=#000000;" vertex="1" parent="1">
                    <mxGeometry x="1389" y="277" width="125" height="29" as="geometry"/>
                </mxCell>
                <mxCell id="75" value="&lt;span style=&quot;font-size: 10px&quot;&gt;Отмена внесенных изменений&lt;/span&gt;" style="text;html=1;strokeColor=none;fillColor=none;align=center;verticalAlign=middle;whiteSpace=wrap;rounded=0;labelBackgroundColor=none;fontColor=#000000;" vertex="1" parent="1">
                    <mxGeometry x="1082" y="295" width="125" height="29" as="geometry"/>
                </mxCell>
                <mxCell id="78" value="&lt;span style=&quot;font-size: 10px&quot;&gt;Выбор определенного игрока&lt;/span&gt;" style="text;html=1;strokeColor=none;fillColor=none;align=center;verticalAlign=middle;whiteSpace=wrap;rounded=0;labelBackgroundColor=none;fontColor=#000000;" vertex="1" parent="1">
                    <mxGeometry x="800" y="170" width="106" height="30" as="geometry"/>
                </mxCell>
                <mxCell id="84" value="&lt;span style=&quot;font-size: 10px&quot;&gt;Обновление интерфейса&lt;/span&gt;" style="text;html=1;strokeColor=none;fillColor=none;align=center;verticalAlign=middle;whiteSpace=wrap;rounded=0;labelBackgroundColor=none;fontColor=#000000;" vertex="1" parent="1">
                    <mxGeometry x="1082" y="340" width="125" height="29" as="geometry"/>
                </mxCell>
                <mxCell id="87" style="edgeStyle=none;html=1;exitX=0.75;exitY=1;exitDx=0;exitDy=0;entryX=0.25;entryY=1;entryDx=0;entryDy=0;strokeColor=#000000;" edge="1" parent="1" source="4" target="4">
                    <mxGeometry relative="1" as="geometry">
                        <Array as="points">
                            <mxPoint x="271" y="321"/>
                            <mxPoint x="225" y="321"/>
                        </Array>
                    </mxGeometry>
                </mxCell>
                <mxCell id="88" value="&lt;font style=&quot;font-size: 10px&quot;&gt;Неудачная авторизация&lt;/font&gt;" style="text;html=1;strokeColor=none;fillColor=none;align=center;verticalAlign=middle;whiteSpace=wrap;rounded=0;labelBackgroundColor=none;fontColor=#000000;" vertex="1" parent="1">
                    <mxGeometry x="190" y="328" width="116" height="30" as="geometry"/>
                </mxCell>
                <mxCell id="92" value="&lt;font style=&quot;font-size: 10px&quot;&gt;Выбор раздела &quot;Главная&quot;&lt;/font&gt;" style="text;html=1;strokeColor=none;fillColor=none;align=center;verticalAlign=middle;whiteSpace=wrap;rounded=0;labelBackgroundColor=none;fontColor=#000000;" vertex="1" parent="1">
                    <mxGeometry x="494" y="170" width="91" height="30" as="geometry"/>
                </mxCell>
                <mxCell id="97" value="&lt;font style=&quot;font-size: 8px&quot;&gt;Закрытие окна создания турнира&lt;/font&gt;" style="text;html=1;strokeColor=none;fillColor=none;align=center;verticalAlign=middle;whiteSpace=wrap;rounded=0;labelBackgroundColor=none;fontColor=#000000;" vertex="1" parent="1">
                    <mxGeometry x="358" y="62" width="86" height="41" as="geometry"/>
                </mxCell>
                <mxCell id="103" value="&lt;font style=&quot;font-size: 10px&quot;&gt;Выбор раздела &quot;Турниры&quot;&lt;/font&gt;" style="text;html=1;strokeColor=none;fillColor=none;align=center;verticalAlign=middle;whiteSpace=wrap;rounded=0;labelBackgroundColor=none;fontColor=#000000;" vertex="1" parent="1">
                    <mxGeometry x="526" y="-87" width="91" height="30" as="geometry"/>
                </mxCell>
                <mxCell id="105" style="edgeStyle=none;html=1;strokeColor=#000000;exitX=0;exitY=0.75;exitDx=0;exitDy=0;entryX=1;entryY=0.75;entryDx=0;entryDy=0;" edge="1" parent="1" source="57" target="53">
                    <mxGeometry relative="1" as="geometry">
                        <mxPoint x="987.9999999999998" y="266.035" as="sourcePoint"/>
                        <mxPoint x="1108.0000000000002" y="266.035" as="targetPoint"/>
                    </mxGeometry>
                </mxCell>
                <mxCell id="107" value="&lt;font style=&quot;font-size: 8px ; line-height: 0&quot;&gt;Закрытие окна редактирования личных данных&lt;/font&gt;" style="text;html=1;strokeColor=none;fillColor=none;align=center;verticalAlign=middle;whiteSpace=wrap;rounded=0;labelBackgroundColor=none;fontColor=#000000;" vertex="1" parent="1">
                    <mxGeometry x="961.5" y="256" width="146" height="39" as="geometry"/>
                </mxCell>
                <mxCell id="109" value="&lt;font style=&quot;font-size: 10px&quot;&gt;Выбор раздела &quot;Игроки&quot;&lt;/font&gt;" style="text;html=1;strokeColor=none;fillColor=none;align=center;verticalAlign=middle;whiteSpace=wrap;rounded=0;labelBackgroundColor=none;fontColor=#000000;" vertex="1" parent="1">
                    <mxGeometry x="752" y="260.5" width="91" height="30" as="geometry"/>
                </mxCell>
                <mxCell id="110" style="edgeStyle=none;html=1;strokeColor=#000000;startArrow=none;entryX=1;entryY=0.75;entryDx=0;entryDy=0;exitX=0;exitY=0.75;exitDx=0;exitDy=0;" edge="1" parent="1" source="53" target="45">
                    <mxGeometry relative="1" as="geometry">
                        <mxPoint x="729" y="277.5" as="sourcePoint"/>
                        <mxPoint x="852.9999999999998" y="277" as="targetPoint"/>
                    </mxGeometry>
                </mxCell>
            </root>
        </mxGraphModel>
    </diagram>
</mxfile>